# File created by Blade
# Date/Time:  Wed Jan 21 19:14:05 2015
#---------------------------------------------------------
:version 1.10
:name HOM
:units
  mass 1.0
  length 1.000000
  angle deg
:documentation
     Acclaim Skeleton File
:root
   axis xyz
   order TX TY TZ RX RY RZ
   position 0.000000 0.000000 0.000000
   orientation 0 0 0
:bonedata
   begin
      id 1
      name RightUpLeg_dum
      direction -1.000000 0.000000 0.000000
      length 3.693983
      axis 0.0 0.0 0.0 xyz
   end
   begin
      id 2
      name LeftUpLeg_dum
      direction 1.000000 0.000000 0.000000
      length 3.693983
      axis 0.0 0.0 0.0 xyz
   end
   begin
      id 3
      name Spine_dum
      direction 0.000000 1.000000 0.000000
      length 2.392956
      axis 0.0 0.0 0.0 xyz
   end
   begin
      id 4
      name RightUpLeg
      direction 0.000000 -1.000000 0.000000
      length 15.795667
      axis 0.0 0.0 0.0 xyz
      dof rx ry rz
   end
   begin
      id 5
      name RightLeg
      direction 0.000000 -1.000000 0.000000
      length 14.766989
      axis 0.0 0.0 0.0 xyz
      dof rx ry rz
   end
   begin
      id 6
      name RightFoot
      direction 0.000000 -0.258819 0.965926
      length 4.962790
      axis 15.0 0.0 0.0 xyz
      dof rx ry rz
   end
   begin
      id 7
      name RightToeBase
      direction 0.000000 0.000000 1.000000
      length 2.952750
      axis 0.0 0.0 0.0 xyz
      dof rx ry rz
   end
   begin
      id 8
      name LeftUpLeg
      direction 0.000000 -1.000000 0.000000
      length 15.795667
      axis 0.0 0.0 0.0 xyz
      dof rx ry rz
   end
   begin
      id 9
      name LeftLeg
      direction 0.000000 -1.000000 0.000000
      length 14.766989
      axis 0.0 0.0 0.0 xyz
      dof rx ry rz
   end
   begin
      id 10
      name LeftFoot
      direction 0.000000 -0.258819 0.965926
      length 4.962790
      axis 15.0 0.0 0.0 xyz
      dof rx ry rz
   end
   begin
      id 11
      name LeftToeBase
      direction 0.000000 0.000000 1.000000
      length 2.952750
      axis 0.0 0.0 0.0 xyz
      dof rx ry rz
   end
   begin
      id 12
      name Spine
      direction 0.000000 1.000000 0.000000
      length 0.000000
      axis 0.0 0.0 0.0 xyz
      dof rx ry rz
   end
   begin
      id 13
      name Spine_dum1
      direction 0.000000 1.000000 0.000000
      length 13.207411
      axis 0.0 0.0 0.0 xyz
   end
   begin
      id 14
      name Spine_dum2
      direction 0.000000 1.000000 0.000000
      length 13.207411
      axis 0.0 0.0 0.0 xyz
   end
   begin
      id 15
      name Spine_dum3
      direction 0.000000 1.000000 0.000000
      length 19.250100
      axis 0.0 0.0 0.0 xyz
   end
   begin
      id 16
      name RightShoulder
      direction -1.000000 0.000000 0.000000
      length 8.140465
      axis 0.0 0.0 90.0 xyz
      dof rx ry rz
   end
   begin
      id 17
      name RightArm
      direction -1.000000 0.000000 0.000000
      length 10.649840
      axis 0.0 0.0 90.0 xyz
      dof rx ry rz
   end
   begin
      id 18
      name RightForeArm
      direction -1.000000 0.000000 0.000000
      length 8.304624
      axis 0.0 0.0 90.0 xyz
      dof ry rz rx
   end
   begin
      id 19
      name RightHand
      direction -1.000000 0.000000 0.000000
      length 0.000000
      axis 0.0 0.0 90.0 xyz
      dof rx ry rz
   end
   begin
      id 20
      name RightHand_dum1
      direction -1.000000 0.000000 0.000000
      length 3.937000
      axis 0.0 0.0 90.0 xyz
   end
   begin
      id 21
      name RightHand_dum2
      direction 0.000000 0.000000 0.000000
      length 0.000000
      axis 0.0 0.0 90.0 xyz
   end
   begin
      id 22
      name RightHandThumb1
      direction 0.000000 0.000000 1.000000
      length 3.937000
      axis 0.0 0.0 90.0 xyz
      dof rx rz ry
   end
   begin
      id 23
      name LeftShoulder
      direction 1.000000 0.000000 0.000000
      length 8.140465
      axis 0.0 0.0 -90.0 xyz
      dof rx ry rz
   end
   begin
      id 24
      name LeftArm
      direction 1.000000 0.000000 0.000000
      length 10.649840
      axis 0.0 0.0 -90.0 xyz
      dof rx ry rz
   end
   begin
      id 25
      name LeftForeArm
      direction 1.000000 0.000000 0.000000
      length 8.304624
      axis 0.0 0.0 -90.0 xyz
      dof ry rz rx
   end
   begin
      id 26
      name LeftHand
      direction 1.000000 0.000000 0.000000
      length 0.000000
      axis 0.0 0.0 -90.0 xyz
      dof rx ry rz
   end
   begin
      id 27
      name LeftHand_dum1
      direction 1.000000 0.000000 0.000000
      length 3.937000
      axis 0.0 0.0 -90.0 xyz
   end
   begin
      id 28
      name LeftHand_dum2
      direction 0.000000 0.000000 0.000000
      length 0.000000
      axis 0.0 0.0 -90.0 xyz
   end
   begin
      id 29
      name LeftHandThumb1
      direction 0.000000 0.000000 1.000000
      length 3.937000
      axis 0.0 0.0 -90.0 xyz
      dof rx rz ry
   end
   begin
      id 30
      name Head
      direction 0.000000 1.000000 0.000000
      length 4.527550
      axis 0.0 0.0 0.0 xyz
      dof rx ry rz
   end
:hierarchy
   begin
      root RightUpLeg_dum LeftUpLeg_dum Spine_dum
      RightUpLeg_dum RightUpLeg
      LeftUpLeg_dum LeftUpLeg
      Spine_dum Spine
      RightUpLeg RightLeg
      RightLeg RightFoot
      RightFoot RightToeBase
      LeftUpLeg LeftLeg
      LeftLeg LeftFoot
      LeftFoot LeftToeBase
      Spine Spine_dum1 Spine_dum2 Spine_dum3
      Spine_dum1 RightShoulder
      Spine_dum2 LeftShoulder
      Spine_dum3 Head
      RightShoulder RightArm
      RightArm RightForeArm
      RightForeArm RightHand
      RightHand RightHand_dum1 RightHand_dum2
      RightHand_dum2 RightHandThumb1
      LeftShoulder LeftArm
      LeftArm LeftForeArm
      LeftForeArm LeftHand
      LeftHand LeftHand_dum1 LeftHand_dum2
      LeftHand_dum2 LeftHandThumb1
   end

# File created by Blade
# Date/Time:  Wed Jan 21 19:13:57 2015
# Frame Rate: 120.000 fps
#------------------------------------------------------
:FULLY-SPECIFIED
:DEGREES
218
root -3.454819 33.766183 -4.008065 15.212146 72.220521 -64.950674
RightUpLeg -19.306036 -3.536844 -24.439172
RightLeg 111.739516 -0.000000 -0.000000
RightFoot 32.998536 -11.486951 6.725426
RightToeBase 52.796246 -0.000000 -0.000000
LeftUpLeg -76.160461 10.809821 7.467853
LeftLeg 2.552401 -0.000000 -0.000000
LeftFoot -7.020899 -3.065799 6.249415
LeftToeBase 6.562764 -0.000000 -0.000000
Spine -56.948638 -0.915628 16.414581
RightShoulder -26.295085 -3.106764 -24.929090
RightArm -18.283292 -28.666802 75.307349
RightForeArm 11.484530 -0.000000 -7.300110
RightHand 7.820193 -0.000000 20.954191
RightHandThumb1 -24.326973 -0.000000 -32.862282
LeftShoulder -10.674814 1.460956 43.769389
LeftArm 30.895217 -19.496328 -37.545445
LeftForeArm 15.165151 -0.000000 15.743778
LeftHand -17.259761 -0.000000 6.232228
LeftHandThumb1 -26.253704 0.000000 33.147579
Head -14.857851 12.309238 23.497085
219
root -3.482685 33.764371 -4.000481 14.801336 72.270585 -65.697118
RightUpLeg -19.025166 -3.872450 -24.722248
RightLeg 112.103914 -0.000000 -0.000000
RightFoot 32.948770 -11.976282 6.429989
RightToeBase 52.982094 -0.000000 -0.000000
LeftUpLeg -76.527350 10.800770 7.858363
LeftLeg 2.631690 -0.000000 -0.000000
LeftFoot -7.031117 -2.708383 6.535261
LeftToeBase 6.447353 -0.000000 -0.000000
Spine -57.050173 -1.019043 16.728857
RightShoulder -26.441575 -3.084562 -24.822248
RightArm -18.509751 -28.876763 75.412648
RightForeArm 11.103366 -0.000000 -7.211788
RightHand 7.040962 -0.000000 22.069190
RightHandThumb1 -24.326973 -0.000000 -32.862282
LeftShoulder -10.745877 1.523448 43.807526
LeftArm 30.823601 -19.685422 -37.682257
LeftForeArm 15.291383 -0.000000 15.932417
LeftHand -17.312868 -0.000000 6.309037
LeftHandThumb1 -26.253704 0.000000 33.147579
Head -15.208830 12.635641 23.508332
220
root -3.510555 33.762278 -3.991128 14.315428 72.334617 -66.509234
RightUpLeg -18.757117 -4.248297 -24.939479
RightLeg 112.395300 -0.000000 -0.000000
RightFoot 32.923998 -12.325658 6.193542
RightToeBase 53.101561 -0.000000 -0.000000
LeftUpLeg -76.905033 10.809937 8.211091
LeftLeg 2.725947 -0.000000 -0.000000
LeftFoot -7.069542 -2.454975 6.758746
LeftToeBase 6.409617 -0.000000 -0.000000
Spine -57.135937 -1.127469 17.038179
RightShoulder -26.588650 -3.005733 -24.736790
RightArm -18.799892 -29.154820 75.636015
RightForeArm 11.156309 0.000000 -7.344669
RightHand 6.591496 0.000000 23.468339
RightHandThumb1 -24.326973 -0.000000 -32.862282
LeftShoulder -10.821740 1.544214 43.859361
LeftArm 30.811349 -19.847871 -37.853234
LeftForeArm 15.529503 0.000000 16.015627
LeftHand -17.381671 -0.000000 6.486930
LeftHandThumb1 -26.253704 0.000000 33.147579
Head -15.577081 12.960282 23.522760
221
root -3.542013 33.762253 -3.981760 13.774469 72.386549 -67.375558
RightUpLeg -18.572008 -4.795931 -25.046792
RightLeg 112.560300 -0.000000 -0.000000
RightFoot 33.246847 -12.742597 5.518464
RightToeBase 53.137510 -0.000000 -0.000000
LeftUpLeg -77.295123 10.842897 8.561265
LeftLeg 2.839272 -0.000000 -0.000000
LeftFoot -7.079643 -2.198527 7.058345
LeftToeBase 6.268242 -0.000000 -0.000000
Spine -57.225937 -1.241901 17.362508
RightShoulder -26.609331 -2.978211 -24.634878
RightArm -19.098784 -29.349454 75.970209
RightForeArm 11.505220 0.000000 -7.587849
RightHand 5.923950 0.000000 24.393067
RightHandThumb1 -24.326973 -0.000000 -32.862282
LeftShoulder -10.860515 1.609668 43.923435
LeftArm 30.813695 -20.005019 -37.997691
LeftForeArm 15.615968 -0.000000 15.986676
LeftHand -17.291661 -0.000000 6.569378
LeftHandThumb1 -26.253704 0.000000 33.147579
Head -15.873880 13.226493 23.605568
222
root -3.571730 33.762042 -3.968913 13.173074 72.430985 -68.261749
RightUpLeg -18.376278 -5.248708 -25.144570
RightLeg 112.698762 -0.000000 -0.000000
RightFoot 33.444485 -12.868433 5.270272
RightToeBase 53.023193 -0.000000 -0.000000
LeftUpLeg -77.649107 10.901314 8.855386
LeftLeg 2.942769 -0.000000 -0.000000
LeftFoot -7.107983 -2.045857 7.216062
LeftToeBase 6.209340 -0.000000 -0.000000
Spine -57.256711 -1.327634 17.616973
RightShoulder -26.703456 -3.010763 -24.497814
RightArm -19.388685 -29.482370 76.328351
RightForeArm 12.056534 0.000000 -7.865921
RightHand 5.316376 -0.000000 25.012739
RightHandThumb1 -24.326973 -0.000000 -32.862282
LeftShoulder -10.911916 1.530614 43.978001
LeftArm 30.821947 -19.939001 -38.017072
LeftForeArm 15.568623 0.000000 15.903109
LeftHand -17.297014 -0.000000 6.692082
LeftHandThumb1 -26.253704 0.000000 33.147579
Head -16.258492 13.445410 23.673371
223
root -3.601263 33.762758 -3.954674 12.652307 72.466014 -69.060668
RightUpLeg -18.215829 -5.662278 -25.247630
RightLeg 112.813695 -0.000000 -0.000000
RightFoot 33.545793 -12.772859 5.199612
RightToeBase 52.849160 -0.000000 -0.000000
LeftUpLeg -77.999483 10.973295 9.090641
LeftLeg 3.037236 -0.000000 -0.000000
LeftFoot -7.123770 -1.923879 7.398801
LeftToeBase 6.145792 -0.000000 -0.000000
Spine -57.298195 -1.419398 17.817058
RightShoulder -26.770526 -3.140638 -24.285909
RightArm -19.596439 -29.587811 76.669622
RightForeArm 13.100602 0.000000 -8.227293
RightHand 4.535046 0.000000 26.227374
RightHandThumb1 -24.326973 -0.000000 -32.862282
LeftShoulder -10.934271 1.508780 44.053133
LeftArm 30.897840 -19.956727 -38.109677
LeftForeArm 15.604919 -0.000000 15.788289
LeftHand -17.343490 -0.000000 6.701830
LeftHandThumb1 -26.253704 0.000000 33.147579
Head -16.602055 13.635523 23.787146
224
root -3.629960 33.762561 -3.937987 12.161198 72.492134 -69.802102
RightUpLeg -18.058338 -6.155608 -25.320262
RightLeg 112.862917 -0.000000 -0.000000
RightFoot 33.618393 -12.380104 4.767741
RightToeBase 52.713852 -0.000000 -0.000000
LeftUpLeg -78.333064 11.066736 9.259419
LeftLeg 3.134136 -0.000000 -0.000000
LeftFoot -7.165502 -1.877826 7.478508
LeftToeBase 6.131986 -0.000000 -0.000000
Spine -57.315292 -1.520960 17.977826
RightShoulder -26.836516 -3.219902 -24.089077
RightArm -19.857413 -29.616727 77.047548
RightForeArm 14.175554 -0.000000 -8.676342
RightHand 3.521360 -0.000000 27.757877
RightHandThumb1 -24.326973 -0.000000 -32.862282
LeftShoulder -10.965412 1.548441 44.106793
LeftArm 31.057147 -19.986715 -38.191024
LeftForeArm 15.607492 -0.000000 15.636906
LeftHand -17.338062 -0.000000 6.756423
LeftHandThumb1 -26.253704 0.000000 33.147579
Head -16.967478 13.802506 23.949079
225
root -3.660567 33.764289 -3.921255 11.704928 72.503975 -70.511211
RightUpLeg -17.996284 -6.738719 -25.346161
RightLeg 112.943803 -0.000000 -0.000000
RightFoot 33.570766 -12.098930 4.181928
RightToeBase 52.321910 -0.000000 -0.000000
LeftUpLeg -78.676606 11.185795 9.380150
LeftLeg 3.232491 -0.000000 -0.000000
LeftFoot -7.189443 -1.889512 7.510249
LeftToeBase 6.131350 -0.000000 -0.000000
Spine -57.321087 -1.601414 18.092694
RightShoulder -26.928882 -3.353624 -23.864570
RightArm -20.081358 -29.524202 77.381004
RightForeArm 15.083616 -0.000000 -8.965912
RightHand 2.939469 -0.000000 28.375091
RightHandThumb1 -24.326973 -0.000000 -32.862282
LeftShoulder -10.967347 1.482307 44.180645
LeftArm 31.151133 -19.957357 -38.232621
LeftForeArm 15.553828 -0.000000 15.454928
LeftHand -17.264155 0.000000 6.592820
LeftHandThumb1 -26.253704 0.000000 33.147579
Head -17.350677 13.970332 24.083710
226
root -3.688098 33.766492 -3.899514 11.172096 72.513483 -71.318282
RightUpLeg -17.950677 -7.431656 -25.236814
RightLeg 113.038061 -0.000000 -0.000000
RightFoot 33.177975 -11.707172 3.479174
RightToeBase 51.940485 -0.000000 -0.000000
LeftUpLeg -79.034484 11.342125 9.455133
LeftLeg 3.304436 -0.000000 -0.000000
LeftFoot -7.212561 -1.991038 7.518139
LeftToeBase 6.074736 -0.000000 -0.000000
Spine -57.348165 -1.676405 18.211805
RightShoulder -27.065763 -3.470443 -23.670801
RightArm -20.296881 -29.497193 77.634904
RightForeArm 16.139905 -0.000000 -8.905495
RightHand 3.890623 -0.000000 26.970087
RightHandThumb1 -24.326973 -0.000000 -32.862282
LeftShoulder -11.001362 1.397036 44.258398
LeftArm 31.285947 -19.788483 -38.199293
LeftForeArm 15.405928 -0.000000 15.216485
LeftHand -17.148472 0.000000 6.513058
LeftHandThumb1 -26.253704 0.000000 33.147579
Head -17.752860 14.076259 24.260288
227
root -3.711974 33.766721 -3.881580 10.936509 72.534507 -71.764470
RightUpLeg -17.861525 -8.207681 -25.218509
RightLeg 113.100906 -0.000000 -0.000000
RightFoot 32.738039 -11.953835 3.715405
RightToeBase 51.706008 -0.000000 -0.000000
LeftUpLeg -79.329094 11.452201 9.381818
LeftLeg 3.342509 -0.000000 -0.000000
LeftFoot -7.219997 -2.113532 7.493114
LeftToeBase 6.018557 -0.000000 -0.000000
Spine -57.323520 -1.793210 18.198139
RightShoulder -27.314543 -3.644939 -23.516784
RightArm -20.335799 -29.467132 77.704222
RightForeArm 16.129508 -0.000000 -8.472994
RightHand 4.081279 -0.000000 25.978868
RightHandThumb1 -24.326973 -0.000000 -32.862282
LeftShoulder -11.023343 1.320458 44.369809
LeftArm 31.373409 -19.616399 -38.200488
LeftForeArm 15.297304 -0.000000 15.089267
LeftHand -17.102830 0.000000 6.415833
LeftHandThumb1 -26.253704 0.000000 33.147579
Head -18.217168 14.201532 24.463686
228
root -3.732391 33.766149 -3.861499 10.618715 72.568918 -72.318310
RightUpLeg -17.831709 -9.007954 -25.110551
RightLeg 113.129558 -0.000000 -0.000000
RightFoot 32.535541 -12.293859 4.075999
RightToeBase 51.060321 -0.000000 -0.000000
LeftUpLeg -79.652924 11.579850 9.257393
LeftLeg 3.368305 -0.000000 -0.000000
LeftFoot -7.224289 -2.330517 7.549386
LeftToeBase 5.903811 -0.000000 -0.000000
Spine -57.335015 -1.907996 18.235912
RightShoulder -27.520353 -3.718488 -23.418525
RightArm -20.519086 -29.551639 77.856292
RightForeArm 16.059183 0.000000 -8.067746
RightHand 3.923676 -0.000000 26.009362
RightHandThumb1 -24.326973 -0.000000 -32.862282
LeftShoulder -11.051085 1.235907 44.435649
LeftArm 31.472460 -19.503002 -38.202548
LeftForeArm 15.252650 0.000000 14.972734
LeftHand -17.006125 -0.000000 6.242365
LeftHandThumb1 -26.253704 0.000000 33.147579
Head -18.653954 14.315951 24.612551
229
root -3.756450 33.769767 -3.839580 10.277846 72.567415 -72.933292
RightUpLeg -17.893789 -9.791601 -24.955687
RightLeg 113.208913 -0.000000 -0.000000
RightFoot 32.380887 -12.361360 4.177744
RightToeBase 50.487038 -0.000000 -0.000000
LeftUpLeg -80.018037 11.765659 9.103473
LeftLeg 3.385532 -0.000000 -0.000000
LeftFoot -7.233824 -2.599215 7.601054
LeftToeBase 5.861006 -0.000000 -0.000000
Spine -57.387746 -2.006145 18.312889
RightShoulder -27.671341 -3.797656 -23.334734
RightArm -20.655583 -29.729076 78.069541
RightForeArm 15.965563 -0.000000 -7.732964
RightHand 3.768384 -0.000000 26.246836
RightHandThumb1 -24.326973 -0.000000 -32.862282
LeftShoulder -11.045854 1.253190 44.514146
LeftArm 31.558301 -19.423102 -38.213137
LeftForeArm 15.268572 -0.000000 14.864057
LeftHand -16.935266 -0.000000 6.131808
LeftHandThumb1 -26.253704 0.000000 33.147579
Head -18.972174 14.468221 24.783464
